<svg width="17" height="17" viewBox="0 0 17 17" fill="none" xmlns="http://www.w3.org/2000/svg">
<path d="M7.39845 9.08131L0.835449 8.64331C0.702841 8.64331 0.575664 8.59063 0.481896 8.49686C0.388128 8.4031 0.335449 8.27592 0.335449 8.14331C0.335449 8.0107 0.388128 7.88353 0.481896 7.78976C0.575664 7.69599 0.702841 7.64331 0.835449 7.64331L7.39845 7.20531L7.83545 0.643311C7.83545 0.510702 7.88813 0.383525 7.9819 0.289757C8.07566 0.195989 8.20284 0.143311 8.33545 0.143311C8.46806 0.143311 8.59523 0.195989 8.689 0.289757C8.78277 0.383525 8.83545 0.510702 8.83545 0.643311L9.27345 7.20631L15.8354 7.64331C15.9681 7.64331 16.0952 7.69599 16.189 7.78976C16.2828 7.88353 16.3354 8.0107 16.3354 8.14331C16.3354 8.27592 16.2828 8.4031 16.189 8.49686C16.0952 8.59063 15.9681 8.64331 15.8354 8.64331L9.27245 9.08131L8.83545 15.6433C8.83545 15.7759 8.78277 15.9031 8.689 15.9969C8.59523 16.0906 8.46806 16.1433 8.33545 16.1433C8.20284 16.1433 8.07566 16.0906 7.9819 15.9969C7.88813 15.9031 7.83545 15.7759 7.83545 15.6433L7.39745 9.08031L7.39845 9.08131Z" fill="white"/>
</svg>
