<svg width="31" height="31" viewBox="0 0 31 31" fill="none" xmlns="http://www.w3.org/2000/svg">
<path d="M15.9515 0.164062C13.2177 0.164062 10.7015 0.830312 8.40148 2.16406C6.13363 3.46526 4.25267 5.34622 2.95148 7.61406C1.61773 9.91406 0.951477 12.4303 0.951477 15.1641C0.951477 17.8978 1.61773 20.4141 2.95148 22.7141C4.25267 24.9819 6.13363 26.8629 8.40148 28.1641C10.7015 29.4978 13.2177 30.1641 15.9515 30.1641C18.6852 30.1641 21.2015 29.4978 23.5015 28.1641C25.7693 26.8629 27.6503 24.9819 28.9515 22.7141C30.2852 20.4141 30.9515 17.8978 30.9515 15.1641C30.9515 12.4303 30.2852 9.91406 28.9515 7.61406C27.6503 5.34622 25.7693 3.46526 23.5015 2.16406C21.2015 0.830312 18.6852 0.164062 15.9515 0.164062ZM19.8515 15.1641H17.3515V24.1641H13.9515V15.1641H11.7515V12.0641H13.9515V10.1641C13.9515 8.76406 14.1852 7.76406 14.6515 7.16406C15.1852 6.43031 16.1515 6.06406 17.5515 6.06406H20.0515V9.16406H18.5515C18.0177 9.16406 17.6852 9.24781 17.5515 9.41406C17.4177 9.58031 17.3515 9.89781 17.3515 10.3641V11.8641H20.0515L19.8515 15.1641V15.1641Z" fill="#7E7E7E"/>
</svg>
