<svg width="37" height="51" viewBox="0 0 37 51" fill="none" xmlns="http://www.w3.org/2000/svg">
<path d="M36.1527 20.5323C35.9519 20.8002 35.8627 21.3358 35.5727 21.7822C35.1711 22.4071 34.5911 23.1659 34.301 23.1659C34.1449 23.1659 34.1003 22.8088 34.1003 22.8088C34.1003 22.8088 33.8995 22.2062 34.2341 21.4474C34.4795 20.9118 34.6134 20.7555 34.9257 20.3538C35.2157 19.9744 35.3942 19.7735 35.595 19.3718C35.7734 19.0147 35.8181 18.9477 35.9296 18.3897C35.9519 18.2558 35.9073 17.9657 35.7734 17.988C35.595 17.988 35.1042 19.0593 34.5911 19.6619C34.1003 20.2199 33.1856 20.9341 33.1856 20.9341C33.1856 20.9341 33.0964 21.001 33.0964 20.8225C33.074 20.6662 33.0517 20.1976 33.141 19.7735C33.2302 19.3494 33.3641 18.9254 33.7433 18.2782C34.1672 17.5416 34.7026 17.0283 34.9703 16.7605C35.0819 16.6489 35.4165 16.448 35.238 16.3364C35.0819 16.2472 34.6134 16.6489 34.2564 16.9167C33.8102 17.2515 33.6541 17.3408 33.2079 17.8764C32.7617 18.4121 32.6502 18.6353 32.6502 18.6353C32.6502 18.6353 32.2263 19.3271 32.1148 19.9967C32.0032 20.6662 32.0032 21.0457 32.0032 21.0457C32.0032 21.0457 32.0032 21.6483 32.0701 22.0054C32.1148 22.3848 32.2709 22.9651 32.2709 22.9651C32.2709 22.9651 32.494 23.6123 32.5832 24.014C32.6725 24.4158 32.8286 25.5987 32.8286 25.5987C32.8286 25.5987 32.9402 26.4468 32.8733 27.2502C32.8063 28.0537 32.7394 28.5224 32.6502 28.7679C32.5609 29.0134 32.3155 29.6607 31.914 30.107C31.5347 30.5311 31.4455 30.598 31.4455 30.598C31.4455 30.598 31.0439 30.9328 30.7093 31.1114C30.3747 31.2899 29.8839 31.5131 29.6608 31.5801C29.4377 31.6247 29.1253 31.647 29.103 31.647H28.813L28.7238 31.5801L28.6792 31.4015C28.6792 31.4015 28.4561 30.5311 28.1884 29.9731C27.9653 29.5044 27.4968 28.8572 27.4968 28.8572C27.4968 28.8572 26.6937 27.7636 26.069 27.161C25.3551 26.4468 24.552 25.9111 24.0612 25.5317C23.8827 25.3978 23.4812 25.1523 23.4812 25.1523C23.4812 25.1523 21.8526 23.523 21.2726 22.2286C20.871 21.3358 20.6033 20.6886 20.7148 19.7065C20.7372 19.4834 20.8264 19.0593 20.871 19.0593L21.161 19.1486C21.1833 19.1709 21.451 19.4164 21.6964 19.5057C21.8303 19.5503 22.0757 19.595 22.0757 19.595C22.0757 19.595 22.2765 19.6173 22.388 19.6396C22.4996 19.6842 22.7003 19.7512 22.8342 19.8181C22.9681 19.8851 23.1688 20.019 23.1688 20.019L23.5481 20.3091L23.9497 20.6216C23.9497 20.6216 24.1727 20.7778 24.2397 20.8002C24.3066 20.8225 24.3512 20.8448 24.3735 20.8448H24.4628C24.4628 20.8448 24.552 20.8225 24.5743 20.7332C24.5966 20.6216 24.4628 20.7109 24.262 20.4877C24.0389 20.2868 23.9497 20.1083 23.9497 20.1083C23.9497 20.1083 23.905 19.9297 23.7266 19.7289C23.5481 19.528 23.325 19.3494 23.325 19.3494C23.325 19.3494 23.1688 19.2379 22.9457 19.1709C22.7227 19.1039 22.6557 19.1039 22.6334 19.0147C22.6111 18.9254 22.9011 18.97 22.9011 18.97C22.9011 18.97 23.2358 19.0147 23.5035 19.1486C23.7712 19.2825 23.9273 19.4387 23.9273 19.4387L24.1058 19.595L24.2174 19.7065L24.3289 19.7735C24.3289 19.7735 24.4405 19.8851 24.4628 19.7289C24.4851 19.595 24.4405 19.4834 24.4181 19.461L24.3066 19.3494L23.8604 18.97C23.7266 18.8361 23.6373 18.7468 23.5035 18.6576C23.3696 18.5683 23.1688 18.4344 22.9234 18.3451C22.7003 18.2558 22.5665 18.2782 22.3434 18.1666C22.1872 18.0996 22.0534 18.055 21.9641 17.9211C21.9418 17.8987 21.8303 17.8095 22.0311 17.8541C22.2319 17.8987 22.3657 17.9657 22.5888 18.0103C22.9457 18.0996 23.1688 18.0996 23.5035 18.2112C23.6373 18.2558 23.8158 18.3451 23.8158 18.3451L24.2397 18.5237C24.2397 18.5237 24.8197 18.8361 25.2213 18.8584C25.6228 18.8808 25.9575 18.7915 26.0913 18.7245C26.2252 18.6799 26.4706 18.5237 26.5375 18.4567C26.6044 18.3897 26.649 18.3228 26.649 18.3228L26.6937 18.2112V18.1219C26.5821 17.988 26.359 18.3451 26.0021 18.4121C25.6228 18.479 25.6451 18.5237 25.3997 18.479C25.132 18.4344 24.9759 18.3674 24.7751 18.1666C24.4181 17.8318 24.2843 17.5193 23.8158 17.3185C23.615 17.2292 23.2581 17.1399 23.2581 17.1399C23.2581 17.1399 22.7673 16.9837 22.4996 16.8274C22.2988 16.7158 21.8749 16.6489 22.0088 16.4703C22.0757 16.3811 22.6111 16.6935 23.0127 16.7382C23.3027 16.7828 23.5035 16.7605 23.7266 16.7605C23.9497 16.7605 24.262 16.6935 24.3066 16.6935C24.3512 16.6712 24.5297 16.6935 24.6859 16.7382C24.842 16.7828 24.9312 16.8498 25.0874 16.9167C25.2436 16.9837 25.422 17.0953 25.4667 17.0953L25.5559 17.1176L25.6005 17.0729L25.6228 17.0283L25.6005 16.9837L25.5336 16.939L25.3997 16.8498C25.3997 16.8498 25.199 16.7382 25.0205 16.5596C24.842 16.3811 24.6858 16.1802 24.4181 16.0909C24.1504 16.0017 23.8381 15.957 23.8381 15.957L23.5258 15.9347L23.3919 15.9124C23.3919 15.9124 23.1688 15.8454 23.3473 15.8008C23.5258 15.7561 23.615 15.7338 23.6596 15.7338C23.6819 15.7115 23.9943 15.6892 24.1727 15.7561C24.3512 15.8231 24.6412 15.9793 24.6635 15.9793C24.6858 16.0017 24.9536 16.2025 25.2436 16.2695C25.5336 16.3364 25.9128 16.3588 25.9128 16.3588L26.0913 16.3141L26.1806 16.2918L26.2475 16.2472L26.2252 16.1356C26.2252 16.1356 26.2252 16.0463 26.0913 16.024C25.9575 16.0017 25.6898 15.957 25.4444 15.7785C25.199 15.5999 25.0205 15.4214 25.0205 15.4214C25.0205 15.4214 24.842 15.2651 24.4851 15.1759C24.1504 15.0866 24.0389 15.0866 24.0389 15.0866L23.9273 15.042L23.6819 14.9304C23.6819 14.9304 23.5704 14.8634 23.4812 14.7518C23.3919 14.6402 23.2581 14.4393 23.6373 14.5509C24.0166 14.6625 24.1058 14.7295 24.1058 14.7295C24.1058 14.7295 24.3066 14.9304 24.4851 14.9527C24.5966 14.975 24.6858 14.9973 24.7528 14.908C24.8643 14.7964 24.552 14.6625 24.3289 14.5063C24.1504 14.3947 23.972 14.1046 23.972 14.1046C23.972 14.1046 23.8381 13.993 24.0389 14.0376C24.2397 14.0822 24.5966 14.3054 24.5966 14.3054C24.5966 14.3054 24.7751 14.3947 24.8643 14.417C24.9312 14.4393 25.1097 14.5509 25.199 14.5956C25.2659 14.6179 25.4667 14.6625 25.6005 14.7295C25.779 14.8411 25.8682 15.0196 25.9575 15.0866C26.0467 15.1535 26.1136 15.2651 26.2252 15.2875C26.3367 15.3098 26.359 15.3544 26.426 15.3098C26.4929 15.2651 26.5152 15.2428 26.5152 15.2428C26.5152 15.2428 26.5375 15.1982 26.426 15.1312C26.3144 15.0643 26.1806 14.8857 26.1806 14.8857L26.1359 14.7964L26.1136 14.7072L26.0021 14.5286L25.8013 14.2385C25.8013 14.2385 25.489 13.8144 25.199 13.6582C24.9312 13.502 24.7305 13.4127 24.7305 13.4127C24.7305 13.4127 24.5966 13.3457 24.5297 13.3011C24.4181 13.2118 24.3735 13.1449 24.2843 13.0333C24.1727 12.8994 24.1281 12.8101 23.9943 12.6762C23.7489 12.4307 22.9904 12.2968 23.2804 12.1182C23.4365 12.0289 23.6373 12.0736 23.7266 12.0959C23.8158 12.1182 24.0166 12.2075 24.2174 12.2744C24.3512 12.3191 24.4405 12.3191 24.5743 12.3637C24.7082 12.4083 24.8643 12.4307 24.9312 12.4753C24.9982 12.5199 25.0651 12.6092 25.1097 12.6315C25.132 12.6539 25.3105 12.944 25.6228 13.1002C25.9352 13.2565 26.0913 13.3681 26.4036 13.3904C26.649 13.4127 27.0506 13.3234 27.0506 13.3234C27.0506 13.3234 27.1622 13.2788 27.0729 13.1672C26.9614 13.0556 26.9614 13.0333 26.8721 13.011C26.5152 12.877 26.2252 12.9217 25.9575 12.6539C25.8459 12.5423 25.8013 12.5199 25.7121 12.3414C25.6228 12.1628 25.6674 12.1182 25.6005 12.0066C25.5559 11.895 25.4444 11.7388 25.4444 11.7388C25.4444 11.7388 25.1097 11.3371 24.7528 11.1362C24.3735 10.9353 24.1058 10.7345 24.0612 10.6898C23.9943 10.6452 23.8604 10.4666 23.8604 10.4666L23.7489 10.2881L23.6819 10.1542C23.6373 9.90866 24.0835 10.2211 24.3289 10.3104C24.7305 10.4443 24.9312 10.6229 25.3328 10.7568C25.5559 10.8237 25.6898 10.8237 25.9128 10.913C26.2921 11.0692 26.4036 11.4486 26.8052 11.4933C27.0283 11.5156 27.4745 11.6049 27.3852 11.404C27.296 11.1808 26.8498 11.1808 26.6267 10.913C26.5152 10.8014 26.5152 10.6898 26.4036 10.5782C26.2252 10.355 25.8013 10.1542 25.8013 10.1542C25.8013 10.1542 25.6674 10.0426 25.5113 9.73011C25.3774 9.41765 25.0428 9.19447 24.4405 8.90432C24.0389 8.70346 23.2358 8.65882 23.5481 8.45795C23.7266 8.32404 23.8827 8.34636 24.1281 8.41331C24.3735 8.50259 24.4628 8.61418 24.6635 8.70346C24.8643 8.79273 24.9536 8.81505 24.9982 8.83737C25.0428 8.85969 25.199 8.92664 25.2659 8.92664C25.3105 8.94896 25.6451 8.9936 25.7344 9.01592L26.1806 9.12751L26.5375 9.26142C26.5375 9.26142 26.716 9.32838 26.8275 9.32838C26.9391 9.32838 27.1175 9.28374 27.1175 9.28374L27.2514 9.19447L27.2737 9.14983C27.2737 9.14983 27.3406 9.03823 27.1622 9.01592C27.006 8.9936 26.9168 8.9936 26.8944 8.9936L26.7383 8.94896L26.6714 8.92664C26.6714 8.92664 26.359 8.68114 26.0913 8.56954C25.8013 8.45795 25.7567 8.43563 25.7567 8.43563L25.6451 8.41331L25.5113 8.39099C25.5113 8.39099 25.3997 8.39099 25.2213 8.23476C25.0428 8.07853 24.9759 7.98926 24.8197 7.83303L24.6189 7.63216C24.6189 7.63216 24.4405 7.49825 24.4405 7.38666C24.4628 7.20811 24.842 7.58752 24.842 7.58752L25.1097 7.76607C25.1097 7.76607 25.3328 7.9223 25.7344 7.94462C26.1359 7.96694 26.6267 7.83303 26.6267 7.83303C26.6267 7.83303 26.6937 7.78839 26.9168 7.85535C27.1398 7.9223 27.3183 8.05621 27.3183 8.05621L27.4968 8.21245L27.7645 8.50259L27.8091 8.48027C27.8314 8.45795 27.943 8.34636 27.7422 8.10085C27.5414 7.85535 27.2068 7.63216 27.2068 7.63216C27.2068 7.63216 26.7606 7.36434 26.3144 7.27506C25.8682 7.18579 25.6674 7.18579 25.6674 7.18579C25.6674 7.18579 25.3328 7.18579 25.132 6.9626C24.9313 6.73942 24.7974 6.51623 24.7974 6.51623L24.7305 6.20377C24.7305 6.20377 24.6189 6.06986 24.3958 5.98058C24.1951 5.89131 23.972 5.7574 23.972 5.7574C23.972 5.7574 23.6373 5.6458 23.615 5.48957C23.5481 5.19943 24.1727 5.48957 24.5074 5.55653C24.8197 5.62348 24.9536 5.73508 25.2659 5.80203C25.5336 5.86899 25.6898 5.89131 25.9798 5.86899C26.1359 5.86899 26.2252 5.84667 26.3813 5.82435C26.5375 5.82435 26.649 5.80203 26.8052 5.82435C27.0283 5.86899 27.1175 5.98058 27.3406 6.06986C27.4745 6.13681 27.5414 6.20377 27.6976 6.22609C27.8314 6.24841 28.0991 6.33768 28.0545 6.20377L27.9876 6.11449C27.876 5.95826 27.7422 5.95826 27.6083 5.84667C27.3183 5.62348 27.1845 5.44493 26.8498 5.2887C26.6267 5.17711 26.4929 5.13247 26.2475 5.08784C26.069 5.06552 25.9352 5.11015 25.7567 5.06552C25.5559 4.99856 25.489 4.90929 25.2882 4.79769C24.9759 4.61915 24.7974 4.46291 24.4628 4.329C24.2397 4.23973 23.8604 4.15045 23.8604 4.15045L23.7043 4.12813L23.6373 4.10582C23.325 3.99422 24.1951 3.74872 24.5966 3.63712C24.7974 3.59249 24.8866 3.54785 25.0874 3.57017C25.2659 3.59249 25.4667 3.83799 25.6674 3.7264C25.9575 3.57017 25.3328 3.14611 25.132 3.07916C24.8643 2.96757 24.3958 3.05684 24.3958 3.05684L23.3696 3.03452L23.0796 2.98988C23.0796 2.98988 22.9011 2.98988 22.7673 2.83365C22.6334 2.67742 22.1203 2.0525 21.5403 1.96323C20.9379 1.87395 20.7595 1.96323 20.7148 1.91859C20.2017 1.11512 19.6663 0.936569 19.2648 0.557152C19.1532 0.445559 18.9747 0.200054 18.9301 0.222373C18.8855 0.244691 18.8186 0.579471 18.707 0.869613C18.5732 1.20439 18.6624 1.36062 18.7293 1.49454C18.8186 1.62845 18.9301 1.71772 18.707 1.85163C18.4839 1.98555 18.1939 1.94091 18.1939 1.94091C18.1939 1.94091 17.9485 1.89627 17.7477 1.78468C17.547 1.6954 17.1231 1.51685 17.1231 1.51685C17.1231 1.51685 16.7215 1.40526 16.4538 1.42758C16.1861 1.4499 16.1638 1.47222 15.963 1.49454C15.8515 1.49454 15.8069 1.49454 15.6953 1.51685C15.6061 1.53917 15.4945 1.47222 15.4945 1.58381C15.4945 1.6954 15.7176 1.6954 15.8738 1.76236C16.0299 1.82931 16.3869 1.82931 16.32 1.91859C16.2307 2.00786 15.8961 2.03018 15.8738 2.00786C15.8515 2.00786 15.6284 1.96323 15.4499 1.96323C15.1599 1.98555 15.1376 1.98555 14.7137 2.18641C14.6468 2.20873 14.6691 2.36496 14.803 2.32033C14.9591 2.27569 15.1822 2.23105 15.4276 2.23105C15.6953 2.23105 15.8515 2.32032 16.1192 2.38728C16.3423 2.45424 16.3646 2.49887 16.6992 2.54351C16.7661 2.54351 16.9 2.49887 16.9 2.58815C16.9 2.63279 16.8108 2.69974 16.8108 2.69974C16.8108 2.69974 16.61 2.74438 16.6323 2.81134C16.6769 2.90061 16.8554 2.81134 16.9446 2.81134C17.0339 2.81134 17.1677 2.83365 17.1454 2.92293L17.1008 2.98988C16.8554 3.05684 16.7215 3.10148 16.4984 3.19075C15.9407 3.41394 15.7176 3.68176 15.1822 3.94959C14.6691 4.19509 13.8437 4.50755 13.8437 4.50755C13.8437 4.50755 13.5983 4.64146 13.2413 4.73074C12.8844 4.82001 12.8621 4.79769 12.6167 4.84233C12.3713 4.86465 12.2597 4.90929 12.0589 5.02088C11.9251 5.08784 11.8582 5.15479 11.7466 5.26639L11.4343 5.73508L11.2558 6.0029C11.2112 6.09218 11.1666 6.13681 11.1443 6.22609C11.0997 6.33768 11.0773 6.38232 11.055 6.49391C10.9881 6.76173 11.055 6.91796 11.0997 7.18579C11.122 7.25274 11.122 7.29738 11.1443 7.36434C11.1666 7.43129 11.2558 7.49825 11.2558 7.49825L11.3451 7.52057C11.3451 7.52057 11.6574 7.49825 11.8582 7.45361C12.0589 7.40897 12.349 7.34202 12.349 7.34202L12.7282 7.23043L12.9736 7.14115C12.9736 7.14115 13.1298 7.14115 13.1521 7.23043C13.1744 7.29738 13.1075 7.40897 13.1075 7.40897C13.1075 7.40897 12.9736 7.47593 12.8621 7.52057C12.7505 7.56521 12.4828 7.63216 12.4605 7.65448L12.1705 7.74375L11.9251 7.76607C11.9251 7.76607 11.8805 7.78839 11.8359 7.85535C11.7912 7.9223 11.7912 7.9223 11.7912 7.96694C11.8359 8.01158 11.8582 8.05622 11.9028 8.10085C11.992 8.16781 12.0366 8.21245 12.1482 8.23476C12.3043 8.30172 12.3936 8.2794 12.5497 8.2794C12.7728 8.2794 12.9067 8.23476 13.1075 8.14549C13.2859 8.0339 13.3529 8.0339 13.5983 7.94462C13.6652 7.9223 13.799 7.89998 13.8437 7.89998C14.2675 7.85535 14.5129 7.9223 14.9368 7.98926C15.3607 8.05622 15.5615 8.19013 15.9853 8.25708C16.4315 8.32404 16.6992 8.45795 17.1677 8.34636C17.3908 8.30172 17.5247 8.19013 17.6362 8.41331C17.7477 8.61418 17.7254 8.72577 17.7254 8.72577C17.7254 8.72577 17.7254 8.85969 17.5693 9.28374C17.4131 9.70779 16.9223 10.7568 16.9223 10.7568L16.5877 11.4263C16.5877 11.4263 16.32 11.962 15.6953 12.6539C15.0707 13.3457 15.026 13.3904 15.026 13.3904C15.026 13.3904 14.6914 13.6359 14.3568 14.0599C14.0221 14.484 14.0221 14.6402 13.7098 14.9527C13.509 15.1535 13.3975 15.2651 13.1521 15.4214C12.9067 15.5776 12.6167 15.533 11.8359 16.0686C11.1666 16.5373 10.8096 16.9167 10.765 16.8944C10.7204 16.8721 10.4973 16.6935 10.4081 16.6489C10.3411 16.6043 9.04722 15.7338 9.04722 15.7338L8.51181 15.3767L8.26641 15.2205L8.22179 15.1312L8.08793 14.9527C8.08793 14.9527 7.88715 14.7072 7.64175 14.5063C7.39635 14.2831 7.12865 14.1046 6.72708 14.0153C6.34783 13.9037 6.10243 13.8367 5.72318 13.9707C5.47778 14.0599 5.34392 14.1492 5.16545 14.3278C4.94236 14.5509 4.89774 14.7295 4.71927 14.9973C4.5408 15.2651 4.36233 15.5106 4.27309 15.6446C4.18385 15.7785 4.00538 16.1356 4.00538 16.1356C4.00538 16.1356 3.5592 16.8498 3.3138 17.3185C3.02379 17.8318 2.91224 18.1442 2.64453 18.6353C2.22066 19.4164 1.61832 20.2199 1.46215 20.577C1.30599 20.9341 1.28368 20.9787 1.28368 20.9787C1.28368 20.9787 1.23906 21.1796 1.21675 21.3135C1.19445 21.4474 1.19445 21.6706 1.17214 21.7599C1.14983 21.8715 1.0829 21.983 1.06059 22.0054C1.03828 22.0277 0.792883 22.541 0.703647 22.8758C0.614411 23.2106 0.413629 24.2595 0.659029 24.3935C0.904428 24.5274 2.71146 23.7462 2.95686 22.9874C3.11302 22.4964 2.46606 22.2509 2.64453 21.8045C2.71146 21.6483 2.75608 21.6259 2.86762 21.4697C3.04609 21.1796 2.97917 20.577 3.3138 20.019C3.5592 19.6173 4.05 19.1039 4.71927 18.3451C5.14314 17.8764 5.54471 17.1176 5.54471 17.1176C5.54471 17.1176 5.63394 16.8498 5.81241 16.8944C6.0132 16.939 6.19167 16.9167 6.19167 16.9167L6.2809 16.9837L6.45938 17.1622L6.72708 17.564C6.72708 17.564 7.17326 18.2112 7.32943 18.3897C7.48559 18.5683 7.64175 18.7022 7.86484 18.8808C8.11024 19.1039 8.19948 19.2155 8.51181 19.461C8.95799 19.8181 8.80182 19.9521 8.22179 19.6396C8.02101 19.528 7.70868 19.4164 7.46328 19.3494C7.19557 19.2825 6.19167 19.0147 5.67856 18.9477C5.18776 18.8808 5.09852 18.9031 5.09852 18.9031C5.09852 18.9031 4.85313 18.8808 4.56311 19.0593C4.27309 19.2379 4.11693 19.3718 4.11693 19.3718C4.11693 19.3718 3.78229 19.7512 3.75998 19.8181C3.73767 19.8851 3.58151 20.1529 3.58151 20.1529C3.58151 20.1529 3.49227 20.2868 3.46997 20.4431C3.42535 20.5993 3.44766 20.7555 3.44766 20.7555L3.46997 21.0903L3.49227 21.4028C3.49227 21.4028 3.5592 22.1839 3.71537 22.9651C3.75998 23.1883 3.8046 23.5454 3.8046 23.5454L3.91615 24.3488C3.91615 24.3488 3.98307 25.1969 4.05 25.4871C4.11693 25.7549 4.16155 25.7772 4.20616 25.9558C4.2954 26.2905 4.13924 26.4468 4.2954 26.8485C4.45156 27.2502 4.58542 27.2056 4.74158 27.4511C4.85313 27.6297 4.89774 27.6743 4.98698 27.8975C5.07622 28.1207 5.36623 28.8572 5.70087 29.3928C6.05781 29.9508 6.5263 30.6427 6.83863 30.5757C7.15096 30.5088 7.37405 30.0178 7.37405 30.0178C7.37405 30.0178 7.73099 29.0581 7.5079 28.1207C7.28481 27.161 6.25859 27.6073 6.12474 26.9155C6.10243 26.7592 6.12474 26.5137 6.12474 26.5137C6.12474 26.5137 6.10243 26.2236 6.05781 26.1343C6.01319 26.045 5.65625 25.3755 5.5224 24.8175C5.41085 24.3935 5.43316 23.032 5.34392 22.6526C5.09852 21.6706 5.07622 21.7599 5.21007 21.5813C5.36623 21.4028 5.50009 21.4474 5.50009 21.4474L5.70087 21.4697L5.85703 21.5367C5.85703 21.5367 6.0355 21.6483 6.14705 21.7152C6.23629 21.7822 6.54861 22.0277 6.54861 22.0277L7.30712 22.5187C7.30712 22.5187 7.73099 22.7642 7.90946 22.8535C8.08793 22.9427 8.2441 23.0543 8.2441 23.0543L8.44488 23.1883L8.77951 23.4338L8.84644 23.5007L8.89106 23.59C8.89106 23.59 9.04722 23.9471 9.71649 24.3265C10.2519 24.639 10.7204 24.5497 10.9212 24.7952C10.9658 24.8398 11.3451 25.3532 11.5235 25.6656C11.7466 26.0227 12.0143 26.4468 12.1036 26.5807C12.1928 26.7146 12.7505 27.4065 12.7505 27.4065L13.4867 28.2099L14.446 29.1027L15.3161 29.8392L15.8738 30.2856C15.8738 30.2856 16.3646 30.7543 16.9223 31.1337C17.4577 31.4908 17.48 31.5354 17.837 31.7809C18.1047 31.9595 18.4616 32.205 18.8186 32.4728C19.1755 32.7629 19.5771 33.2986 19.4209 33.4771C19.3094 33.5441 19.1086 33.254 18.7293 32.9192C18.417 32.6514 18.2609 32.5174 17.9485 32.2943C17.547 31.9818 17.3462 31.8256 16.9 31.5577C16.6769 31.4238 16.2753 31.1783 16.253 31.223C16.0969 31.6917 16.1192 32.138 16.1415 32.7183C16.1638 33.12 16.2307 33.5218 16.3646 34.0351C16.4761 34.5261 16.5877 34.7939 16.7661 35.2626C16.9446 35.7313 17.2793 36.4678 17.2793 36.4678L17.7924 37.4945L18.2609 38.2757L18.5062 38.6774L18.5955 38.8113C18.5955 38.8113 18.707 39.0791 18.5955 39.2577C18.4839 39.4362 18.3501 39.8156 18.1493 39.838C17.9485 39.8826 17.48 39.9049 17.48 39.9049L14.8253 39.8603L13.4421 39.7487C13.4421 39.7487 13.2859 39.6594 12.4828 39.6594C12.0143 39.6594 11.6351 39.8603 11.3674 39.8826C11.1443 39.9049 10.0511 39.8156 9.31493 40.1058C8.62335 40.3959 8.31102 40.4629 8.06562 40.9093C7.88715 41.244 8.93568 41.7797 9.80573 41.9805C11.2112 42.293 10.8096 41.6904 11.3451 41.311C11.412 41.2664 11.4343 41.2217 11.5012 41.1994C11.8582 41.0878 12.0589 41.3779 12.4159 41.3779C12.8174 41.3779 13.0405 41.244 13.4421 41.1771C15.4722 40.9093 18.6401 41.869 18.6401 41.869C18.6401 41.869 19.4209 42.1145 19.7779 42.0475C20.2017 41.9582 20.1125 41.802 20.2464 41.5565C20.3579 41.3556 20.3133 41.311 20.3356 41.0878C20.3356 40.9539 20.3133 40.8869 20.291 40.753C20.2017 40.3736 19.9563 39.838 19.9563 39.838C19.9563 39.838 19.7779 39.4362 19.7109 39.2354C19.6217 38.9452 19.5325 38.7667 19.4878 38.4542C19.354 37.6284 19.3763 37.6954 19.3763 37.2267C19.3763 36.3786 19.4655 35.9099 19.6886 35.0841C20.0233 33.8789 20.6479 33.3656 21.1164 32.205C21.2503 31.8925 21.2503 31.4461 21.4064 31.4015C21.5849 31.3792 21.5626 31.9595 21.4734 32.2943C21.1833 33.4548 20.4694 33.9458 20.1348 35.1287C19.8894 36.0438 19.7556 36.5794 19.8225 37.5168C19.8448 38.0301 20.0456 38.8336 20.0456 38.8336C20.0456 38.8336 20.3133 39.7264 20.4471 40.0611C20.581 40.3959 20.8487 40.9539 20.8487 40.9539L21.451 42.0252L21.7634 42.5385C21.7634 42.5385 21.9865 42.7394 21.8749 43.0742C21.7634 43.4089 21.5403 43.6098 21.2726 43.8999C20.5141 44.7927 18.7516 46.1095 18.3055 46.422C17.6808 46.8906 17.7031 47.0246 17.6585 47.1585C17.4131 47.8727 16.6992 47.895 15.9184 48.7431C15.7399 48.9216 15.2714 49.4127 15.3607 49.8367C15.4053 49.9929 17.3239 50.3277 18.4393 49.859C19.3094 49.4796 18.5509 49.0556 18.7963 48.6315C18.9747 48.319 19.4209 48.319 19.6217 48.0512C19.9563 47.6048 19.7332 47.6272 20.0233 47.2701C20.9826 46.1095 21.6072 45.4399 23.325 44.391C23.4812 44.3017 23.7712 44.1678 23.7712 44.1678C23.7712 44.1678 24.0166 44.0562 24.1058 43.9223C24.2174 43.7437 24.1951 43.5875 24.1951 43.3866C24.1951 43.2527 24.1727 43.1858 24.1727 43.0518C24.1727 42.8956 24.1951 42.8063 24.1504 42.6501C24.1058 42.4046 23.9497 42.2037 23.8604 42.0698C23.7712 41.9582 23.615 41.7574 23.5258 41.3333C23.4142 40.9093 23.4142 40.5522 23.5927 40.0835C23.7712 39.6148 24.1727 39.2354 24.1727 39.2354L25.1766 38.5658C25.1766 38.5658 26.0467 37.9409 26.3144 37.6954C26.6044 37.4499 27.1622 36.9365 27.5637 36.3563C28.0322 35.709 28.2776 35.3073 28.4784 34.5261C28.5453 34.236 28.6122 33.7896 28.6122 33.7896C28.6122 33.7896 28.6122 33.4771 28.7907 33.4548C28.9692 33.4325 29.0138 33.4995 29.0138 33.4995C29.0138 33.4995 29.17 33.5887 29.2146 34.0351C29.2369 34.4815 29.103 34.9948 29.103 34.9948C29.103 34.9948 28.9692 35.5081 28.9246 35.8206C28.9023 36.0215 28.9023 36.1331 28.9023 36.3563C28.9023 36.7357 29.0584 37.0481 29.0584 37.0481C29.0584 37.0481 29.1477 37.1151 29.1477 36.9589C29.1477 36.7803 29.1923 36.5125 29.2592 36.2447C29.3261 36.0215 29.3707 36.0661 29.5046 35.6867C29.6831 35.1957 29.5269 35.2403 29.6161 34.9502C29.6608 34.8163 29.7723 34.6824 29.9062 34.6824C30.04 34.6824 30.0623 34.8609 30.0623 34.8609C30.0623 34.8609 30.1962 35.4412 30.0846 35.9768C29.9731 36.5125 29.5715 37.249 29.5715 37.249L29.2592 37.7846C29.2592 37.7846 29.0361 38.1641 28.9469 38.4096C28.8576 38.6774 28.8353 38.789 28.8799 39.0345C28.9469 39.3023 29.1477 39.6594 29.2592 39.5925C29.3484 39.5255 29.1253 39.3023 29.3931 38.7667C29.6608 38.231 30.0177 37.8962 30.0177 37.8962C30.0177 37.8962 30.5085 37.316 30.7316 36.8696C30.9324 36.4678 31.1332 35.8206 31.1332 35.8206C31.1332 35.8206 31.2893 35.2403 31.2447 34.7493C31.2224 34.2806 31.1332 34.0351 31.1332 34.0351L30.9324 33.678L30.8208 33.4102L30.8655 33.254C30.9101 33.2316 31.0662 33.3432 31.2001 33.5218C31.3339 33.7003 31.4678 33.9235 31.5347 34.236C31.6016 34.4592 31.624 34.66 31.624 34.8609C31.624 35.0394 31.557 35.776 31.8247 36.2447C31.9363 36.4678 32.204 36.9812 32.2263 36.758C32.2709 36.2447 32.0478 35.9992 32.0701 35.5305C32.0924 34.9948 32.2263 35.1287 32.2709 34.8609C32.3155 34.5708 32.3825 34.5038 32.3378 34.1244C32.2932 33.7673 32.1371 33.2986 32.1371 33.2986L31.9809 32.9415L31.914 32.8076C31.914 32.8076 31.9586 32.7406 32.0255 32.7406L32.5609 32.5621C32.5609 32.5621 33.2525 32.2496 33.5202 32.0264C33.8102 31.8256 34.1449 31.4685 34.1449 31.4685C34.1449 31.4685 34.5911 30.9105 34.8141 30.5088C35.3496 29.5044 35.3496 28.2323 35.3273 27.652C35.3049 27.094 35.1488 26.3575 35.1488 26.3575C35.1488 26.3575 34.9703 25.4648 35.0149 24.8845C35.0595 24.3042 35.1042 24.0364 35.1042 24.0364C35.1042 24.0364 35.0819 23.4561 35.5727 22.8312C36.0635 22.2062 36.2865 21.8045 36.3758 21.3358C36.465 20.9341 36.3312 20.2868 36.1527 20.5323ZM21.3841 16.515C21.3172 16.515 21.228 16.4257 21.228 16.4257C21.228 16.4257 21.2056 16.4034 21.2726 16.3588C21.3395 16.3141 21.4287 16.3364 21.4287 16.3364L21.4957 16.3588L21.6072 16.515C21.5849 16.5819 21.451 16.5373 21.3841 16.515ZM21.6518 15.7785C21.5849 15.7561 21.4734 15.6892 21.4734 15.6892C21.4734 15.6892 21.451 15.6446 21.518 15.5999C21.5849 15.5553 21.6964 15.5776 21.6964 15.5776L21.7634 15.6222C21.7857 15.6446 21.8972 15.7561 21.8972 15.8008C21.8972 15.8677 21.7411 15.8008 21.6518 15.7785ZM21.8972 15.0196C21.808 14.9973 21.6741 14.908 21.6741 14.908C21.6741 14.908 21.6518 14.8634 21.7411 14.8188C21.8303 14.7741 21.9641 14.7964 21.9641 14.7964L22.0534 14.8411C22.098 14.8857 22.2095 14.9973 22.2095 15.0643C22.1872 15.1312 21.9865 15.042 21.8972 15.0196ZM22.098 14.3278C22.0088 14.3054 21.8749 14.2162 21.8749 14.2162C21.8749 14.2162 21.8526 14.1715 21.9418 14.1269C22.0311 14.0822 22.1649 14.1046 22.1649 14.1046L22.2542 14.1492C22.2988 14.1938 22.4103 14.3054 22.4103 14.3724C22.388 14.417 22.1872 14.3278 22.098 14.3278ZM22.2988 13.502C22.1872 13.4796 22.0534 13.3681 22.0534 13.3681C22.0534 13.3681 22.0311 13.3234 22.1203 13.2565C22.2095 13.1895 22.3657 13.2341 22.3657 13.2341L22.4549 13.2788C22.4996 13.3234 22.6334 13.4573 22.6334 13.5243C22.6334 13.6136 22.388 13.502 22.2988 13.502ZM22.4326 12.6092C22.2988 12.5869 22.1203 12.453 22.1203 12.453C22.1203 12.453 22.0757 12.386 22.2095 12.3191C22.3211 12.2521 22.4996 12.2744 22.4996 12.2744L22.6111 12.3414C22.6557 12.386 22.8119 12.5646 22.8342 12.6539C22.8342 12.7431 22.5665 12.6315 22.4326 12.6092ZM22.5219 11.7165C22.3657 11.6942 22.1426 11.5156 22.1426 11.5156C22.1426 11.5156 22.098 11.4486 22.2319 11.3594C22.3657 11.2701 22.5888 11.3147 22.5888 11.3147C22.5888 11.3147 22.6557 11.3371 22.7227 11.3817C22.7896 11.4486 22.9681 11.6495 22.9904 11.7611C23.0127 11.8727 22.678 11.7388 22.5219 11.7165ZM22.6557 10.6898C22.4773 10.6675 22.2319 10.4666 22.2319 10.4666C22.2319 10.4666 22.1872 10.3774 22.3434 10.2881C22.4996 10.1765 22.745 10.2434 22.745 10.2434C22.745 10.2434 22.8342 10.2658 22.9011 10.3327C22.9681 10.3997 23.1911 10.6452 23.2135 10.7568C23.2135 10.8907 22.8342 10.7121 22.6557 10.6898ZM22.5665 6.53855C22.4326 6.51623 22.2542 6.38232 22.2542 6.38232C22.2542 6.38232 22.2095 6.33768 22.3434 6.27072C22.4773 6.20377 22.6557 6.24841 22.6557 6.24841C22.6557 6.24841 22.7227 6.27072 22.7673 6.31536C22.8119 6.36 22.9904 6.51623 22.9904 6.6055C22.9904 6.67246 22.7003 6.56087 22.5665 6.53855ZM23.0573 7.54289C23.0796 7.63216 22.7673 7.52057 22.6111 7.49825C22.4773 7.47593 22.2765 7.3197 22.2765 7.3197C22.2765 7.3197 22.2319 7.25274 22.3657 7.18579C22.4996 7.09651 22.678 7.14115 22.678 7.14115C22.678 7.14115 22.745 7.16347 22.8119 7.20811C22.8788 7.27506 23.035 7.45361 23.0573 7.54289ZM22.4103 9.19447C22.5442 9.10519 22.7673 9.14983 22.7673 9.14983C22.7673 9.14983 22.8342 9.17215 22.9011 9.21678C22.9681 9.28374 23.1465 9.48461 23.1688 9.5962C23.1911 9.70779 22.8565 9.57388 22.7003 9.52925C22.5442 9.50693 22.3211 9.32838 22.3211 9.32838C22.3211 9.32838 22.2765 9.28374 22.4103 9.19447ZM22.7003 8.43563C22.5442 8.41331 22.3211 8.23476 22.3211 8.23476C22.3211 8.23476 22.2765 8.16781 22.4103 8.07853C22.5442 7.98926 22.7673 8.0339 22.7673 8.0339C22.7673 8.0339 22.8342 8.05622 22.9011 8.10085C22.9681 8.16781 23.1465 8.36868 23.1688 8.48027C23.1911 8.61418 22.8565 8.48027 22.7003 8.43563ZM22.9904 5.08784C23.1688 5.13247 23.2135 5.24407 23.1242 5.24407C23.035 5.26639 22.9904 5.26639 22.9234 5.26639C22.7227 5.26639 22.745 5.17711 22.4773 5.31102C22.2095 5.44493 22.4103 5.37798 22.0311 5.51189C21.6741 5.6458 21.7634 5.2887 21.7634 5.2887C21.7634 5.2887 21.7857 5.22175 21.8303 5.0432C21.8749 4.86465 22.098 5.0432 22.2542 5.0432C22.5442 5.0432 22.7896 5.0432 22.9904 5.08784ZM21.9865 3.70408L22.098 3.77104C22.1426 3.81567 22.2988 3.99422 22.3211 4.0835C22.3434 4.17277 22.0534 4.06118 21.9418 4.03886C21.808 4.01654 21.6295 3.88263 21.6295 3.88263C21.6295 3.88263 21.5849 3.81567 21.7187 3.74872C21.8303 3.65944 21.9865 3.70408 21.9865 3.70408ZM21.1833 2.63279C21.2949 2.56583 21.4734 2.58815 21.4734 2.58815L21.5849 2.6551C21.6295 2.69974 21.7857 2.87829 21.808 2.96757C21.8303 3.05684 21.5403 2.94525 21.4287 2.92293C21.2949 2.90061 21.1164 2.7667 21.1164 2.7667C21.1164 2.7667 21.0718 2.69974 21.1833 2.63279ZM20.9602 17.0953C21.0272 17.0506 21.1164 17.0729 21.1164 17.0729L21.1833 17.0953L21.2949 17.2515C21.2949 17.2961 21.161 17.2292 21.0941 17.2292C21.0272 17.2292 20.9379 17.1399 20.9379 17.1399C20.9379 17.1399 20.8933 17.1176 20.9602 17.0953ZM12.0143 6.47159C11.9474 6.51623 11.9028 6.53855 11.8135 6.6055C11.702 6.69478 11.5905 6.91796 11.5235 6.85101C11.4343 6.78405 11.4789 6.53855 11.4789 6.53855C11.4789 6.53855 11.5458 6.36 11.6351 6.18145C11.7466 6.0029 11.8805 6.0029 11.8805 6.0029C12.0143 6.0029 12.2597 6.09218 12.2597 6.29304C12.282 6.49391 12.1259 6.40464 12.0143 6.47159ZM13.8437 7.16347C13.8437 7.16347 13.7544 7.18579 13.7321 7.02956C13.7098 6.87333 13.8437 6.85101 13.8437 6.85101C13.8437 6.85101 14.1114 6.7171 14.1114 6.89565C14.1337 7.05188 13.8437 7.16347 13.8437 7.16347ZM16.2307 4.12813C16.2307 4.12813 15.9407 4.59683 15.5392 4.77538C15.1376 4.95392 14.8699 5.0432 14.1114 5.11016C13.9998 5.11016 14.0444 5.0432 14.0444 5.0432C14.0444 5.0432 14.9145 4.79769 15.4053 4.52987C15.673 4.37364 15.9853 4.17277 16.0746 4.0835C16.3869 3.81567 16.2307 4.12813 16.2307 4.12813ZM1.23906 23.4561C1.23906 23.5677 1.10521 23.7685 1.06059 23.7685C1.01597 23.7685 0.926737 23.5677 0.949046 23.4561C0.971355 23.3445 0.993664 23.032 1.17214 23.0767C1.30599 23.099 1.23906 23.3445 1.23906 23.4561ZM1.8191 20.9341C1.8191 20.9341 1.61832 21.3581 1.55139 21.1796C1.48446 21.0233 1.61832 20.7332 1.61832 20.7332C1.79679 20.577 1.86372 20.3538 1.95295 20.4431C2.01988 20.5323 1.8191 20.9341 1.8191 20.9341ZM4.58542 16.5819C4.38464 16.8051 3.75998 17.988 3.62613 17.7871C3.49227 17.6309 4.22847 16.515 4.38464 16.2918C4.5408 16.0463 4.67465 16.0909 4.67465 16.0909L4.71927 16.1356C4.69696 16.1356 4.7862 16.3588 4.58542 16.5819ZM6.25859 14.8188C6.25859 14.8188 5.81241 14.908 5.87934 14.7518C5.96858 14.5956 6.2809 14.5286 6.2809 14.5286C6.5263 14.5733 6.57092 14.5956 6.54861 14.7072C6.57092 14.8188 6.25859 14.8188 6.25859 14.8188ZM8.06562 17.9434C7.86484 18.1442 7.79792 17.8764 7.5079 17.5416C7.21788 17.2292 7.28481 16.9614 7.28481 16.9614H7.32943L7.37405 16.9837L7.48559 17.0283L7.55252 17.0953L7.77561 17.3185C7.86484 17.4524 8.11024 17.8987 8.06562 17.9434ZM4.60773 24.6166C4.5408 24.6166 4.47387 24.4827 4.47387 24.4827C4.47387 24.4827 4.2954 24.2149 4.22847 24.014C4.16155 23.8355 4.13924 23.5454 4.13924 23.5454C4.13924 23.5454 4.09462 23.1659 4.09462 23.032C4.11693 22.8535 4.11693 22.6972 4.13924 22.608C4.16155 22.5187 4.25078 22.541 4.25078 22.541C4.38464 22.541 4.38464 22.6526 4.38464 22.6526V22.7196C4.38464 22.7196 4.38464 23.1213 4.40694 23.4338C4.40694 23.523 4.65234 24.5274 4.65234 24.5274C4.65234 24.5274 4.69696 24.6166 4.60773 24.6166ZM4.56311 19.9297C4.40695 20.1752 4.2954 20.1752 4.2954 20.1752C4.2954 20.1529 4.25078 20.0636 4.38464 19.7958C4.51849 19.528 4.65234 19.5503 4.65234 19.5503L4.69696 19.595C4.69696 19.595 4.71927 19.6842 4.56311 19.9297ZM6.14705 29.2812C6.19167 29.192 6.48168 29.4152 6.48168 29.4152C6.59323 29.4375 6.70477 29.6383 6.70477 29.6383C6.70477 29.6383 6.74939 29.7946 6.61554 29.8392C6.48168 29.9062 6.39245 29.7723 6.39245 29.7723C6.39245 29.7723 6.10243 29.3705 6.14705 29.2812ZM8.2441 22.4517C7.93177 22.3848 7.2625 21.8715 6.99479 21.7375C6.72708 21.6036 6.2809 21.559 6.48168 21.3804C6.50399 21.3581 6.5263 21.3135 6.57092 21.3135C6.61554 21.3135 6.81632 21.3804 6.81632 21.3804L7.30712 21.5813C7.32943 21.5813 7.57483 21.6929 7.77561 21.8045C7.95408 21.9161 8.26641 22.117 8.26641 22.117L8.40026 22.2286C8.40026 22.2732 8.55642 22.5187 8.2441 22.4517ZM10.9658 18.0103C10.9658 18.0103 10.5865 18.5237 10.3635 18.8361C10.0734 19.2602 9.71649 19.9074 9.64957 19.8405C9.58264 19.7735 9.96189 19.0593 10.1627 18.6799C10.3858 18.2112 10.7204 17.9657 10.8543 17.9211C11.1443 17.7871 10.9658 18.0103 10.9658 18.0103ZM9.76111 40.3513C9.76111 40.3513 9.76111 40.4406 9.60495 40.5522C9.44878 40.6637 9.38186 40.5968 9.35955 40.5968C9.33724 40.5968 9.18108 40.5075 9.18108 40.4182C9.20338 40.329 9.44878 40.262 9.44878 40.262C9.87266 40.2397 9.76111 40.3513 9.76111 40.3513ZM13.219 40.2174C13.0628 40.1951 13.0405 40.1504 13.0628 40.1281C13.0628 40.1058 13.1075 40.0611 13.2859 40.0611C13.4644 40.0611 13.4644 40.1504 13.4644 40.1504C13.4644 40.2174 13.3975 40.2397 13.219 40.2174ZM17.19 40.4406C16.8554 40.5298 16.7215 40.4852 16.4315 40.5075C16.1861 40.5298 16.0746 40.5522 15.8292 40.5522C15.4053 40.5522 15.3607 40.5745 14.7583 40.3959C14.6468 40.3513 14.5129 40.2174 14.5576 40.1727C14.6022 40.1058 14.6914 40.1281 14.6914 40.1281C14.6914 40.1281 15.4499 40.262 15.9407 40.2843C16.2977 40.3066 16.4761 40.329 16.8331 40.3067C17.0339 40.3067 16.9223 40.2843 17.2346 40.2843C17.3462 40.262 17.2793 40.4182 17.19 40.4406ZM19.3094 39.8156C19.2871 39.838 19.1532 39.8826 19.0417 39.9049C18.9078 39.9272 18.9747 39.8156 18.9747 39.8156C18.9747 39.8156 19.064 39.6817 19.1755 39.6148C19.3094 39.5478 19.3763 39.6148 19.3763 39.6148C19.4209 39.704 19.3317 39.7933 19.3094 39.8156ZM20.9602 35.5305C20.8041 35.8652 20.7595 35.9768 20.7372 36.2893C20.6925 36.6241 20.8933 37.5615 20.581 37.2044C20.4694 37.0481 20.3579 36.3116 20.4471 35.9545C20.6033 35.151 21.2503 34.9279 20.9602 35.5305ZM16.4538 49.1671C16.32 49.2564 16.5877 49.5242 16.1638 49.5019C15.9184 49.4796 16.0523 49.2564 16.0746 49.2341L16.2307 49.0109C16.3423 48.8547 16.4092 48.8324 16.5207 48.7654C16.6323 48.6985 16.7215 48.877 16.7215 48.877C16.7215 48.877 16.7661 48.944 16.7661 49.0332C16.7661 49.1002 16.5654 49.0779 16.4538 49.1671ZM18.7963 46.913L18.5955 47.0692C18.5732 47.0692 18.4393 47.1808 18.3947 47.1138C18.3501 47.0469 18.417 46.9576 18.417 46.9353C18.417 46.913 18.5509 46.7567 18.6624 46.7121C18.774 46.6451 18.8409 46.7121 18.8409 46.7121C18.9078 46.8683 18.7963 46.913 18.7963 46.913ZM19.8448 7.81071C19.8448 7.81071 19.7556 8.10085 19.5771 8.16781C19.354 8.23476 18.5062 8.25708 18.4839 8.19013C18.4616 8.12317 19.4655 8.0339 19.8448 7.65448C19.934 7.5652 19.8448 7.81071 19.8448 7.81071ZM19.5325 7.0742C19.5994 6.9626 19.5548 7.25274 19.5548 7.25274C19.5548 7.25274 19.4878 7.54289 19.3317 7.63216C19.1309 7.74375 18.6401 7.87767 18.5955 7.81071C18.5955 7.76607 19.2424 7.56521 19.5325 7.0742ZM18.1493 3.7264C18.1493 3.7264 18.2385 3.7264 18.3724 3.79336C18.5062 3.88263 18.5955 4.15045 18.5955 4.15045C18.5955 4.15045 18.6178 4.19509 18.5062 4.19509C18.4393 4.19509 18.4393 4.0835 18.3724 4.03886C18.2832 3.9719 18.2162 3.94959 18.1047 3.90495C17.9931 3.86031 17.837 3.92727 17.8147 3.81567C17.8147 3.68176 18.1493 3.7264 18.1493 3.7264ZM17.1231 4.46291C17.1231 4.46291 17.1677 4.329 17.3685 4.21741C17.547 4.10582 17.7924 4.10582 17.7924 4.10582C17.7924 4.10582 17.9262 4.10582 18.0824 4.21741C18.2385 4.329 18.3724 4.70842 18.3724 4.70842C18.3724 4.70842 18.417 4.95392 18.3055 5.0432C18.1939 5.13247 18.0155 4.97624 17.9262 4.84233C17.8147 4.70842 17.7477 4.66378 17.5916 4.61914C17.4131 4.55219 17.1454 4.75306 17.1008 4.61914C17.1008 4.57451 17.1231 4.46291 17.1231 4.46291ZM17.0562 7.54289C16.9223 7.5652 17.0115 7.43129 17.0115 7.43129C17.0115 7.43129 17.3908 7.27506 17.6362 7.14115C18.0378 6.94028 18.7963 6.13681 18.5955 6.51623C18.5062 6.69478 18.2385 6.91797 18.2385 6.91797C18.2385 6.91797 17.9262 7.36434 17.8593 7.43129C17.5693 7.65448 17.2123 7.52057 17.0562 7.54289ZM13.9106 16.2025L13.9329 16.1579C13.9329 16.1579 14.6022 15.7115 15.6507 15.8454C16.2753 15.9347 16.8777 16.4927 16.7885 16.5596C16.6992 16.6266 16.5654 16.5596 16.5207 16.5596L16.2977 16.448L15.963 16.3588C15.963 16.3588 15.3607 16.2248 14.9145 16.2472C14.4683 16.2695 14.0668 16.4257 14.0668 16.4257C14.0668 16.4257 13.8883 16.515 13.8437 16.4034C13.8214 16.2695 13.9106 16.2025 13.9106 16.2025ZM15.5615 28.7679C14.0221 27.585 12.1482 25.1746 12.3713 24.9514C12.572 24.7729 13.3306 25.8888 14.4683 27.1163C15.673 28.4108 17.0785 29.6383 17.1231 29.7946C17.2123 30.0624 16.1415 29.2143 15.5615 28.7679ZM19.064 12.0959C18.417 13.2118 17.5247 14.0599 17.5247 14.0599C17.2123 14.2831 17.4131 13.8814 17.4131 13.8814C17.4131 13.8814 18.2832 12.6762 18.6847 11.8281C18.9747 11.2255 19.1532 10.422 19.2871 10.2658C19.5994 9.88634 19.4432 11.4263 19.064 12.0959ZM20.8487 24.3265C20.1794 23.523 19.6886 22.6526 19.5325 21.559C19.4878 21.3135 19.4878 20.9564 19.7109 21.001C19.9117 21.0233 19.8894 21.4028 19.8894 21.492C19.9563 22.1393 20.224 22.7865 20.7148 23.5677C21.4064 24.6613 22.5219 25.5094 22.4773 25.5763C22.3657 25.6879 21.2503 24.8175 20.8487 24.3265ZM21.0495 45.1944C20.6702 45.5515 20.0233 46.0425 20.0233 46.0425H19.934V45.9309L19.9563 45.8863L20.001 45.8194L20.0456 45.7524L20.0902 45.6854L20.224 45.5292L20.5364 45.2391L20.8487 44.9489L21.3395 44.4579C21.3395 44.4579 21.518 44.257 21.5849 44.2124C21.6518 44.1678 21.6964 44.1231 21.7634 44.0785C21.8526 44.0339 21.9641 43.9669 22.0088 44.0115V44.1008C22.0311 44.1678 21.451 44.815 21.0495 45.1944ZM22.4326 28.6786C22.1426 28.8795 22.0311 28.8572 21.8526 29.0581C21.6518 29.3036 21.5849 30.1293 21.3841 29.7946C21.1833 29.4598 21.3172 28.9911 21.6518 28.634C22.0534 28.1653 22.9234 28.3215 22.4326 28.6786ZM23.4812 43.3643C23.615 43.3197 23.6819 43.342 23.6819 43.342L23.7266 43.4313C23.7266 43.4536 23.5481 43.6991 23.4589 43.6991C23.3473 43.6768 23.3919 43.5429 23.3919 43.5429C23.3919 43.5429 23.3473 43.4089 23.4812 43.3643ZM27.296 34.2806C27.0952 34.1467 27.4076 33.745 27.4076 33.4102C27.4076 33.1424 27.3629 32.9415 27.3629 32.7183C27.3629 32.4951 27.586 32.4282 27.586 32.4282C27.6306 32.4282 27.7199 32.4728 27.8314 32.696C27.943 32.9192 27.653 34.5038 27.296 34.2806ZM34.1226 27.8975C34.078 28.8349 34.0333 29.5044 33.4756 30.2186C32.8063 31.0891 31.6463 31.9818 31.8917 31.2676C32.0478 30.8435 33.074 30.3079 33.4756 29.125C33.6987 28.4108 33.7433 27.7413 33.7433 27.7413L33.6987 26.3798C33.6987 26.3798 33.6764 26.2682 33.6764 26.112C33.7433 25.9334 33.8326 26.0674 33.8326 26.0674L33.8772 26.1343C33.8772 26.179 34.1449 27.2279 34.1226 27.8975Z" fill="white"/>
</svg>
