<svg width="31" height="31" viewBox="0 0 31 31" fill="none" xmlns="http://www.w3.org/2000/svg">
<path d="M20.9515 15.7641C20.8238 16.4157 20.5872 17.0412 20.2515 17.6141C19.9192 18.1793 19.4772 18.6723 18.9515 19.0641C18.2561 19.584 17.4191 19.8804 16.5515 19.9141C15.6945 19.9498 14.845 19.7417 14.1015 19.3141C13.3435 18.8899 12.7329 18.2445 12.3515 17.4641C11.7515 16.2641 11.6177 14.9978 11.9515 13.6641H10.5515L10.6515 20.5641C10.6515 20.6978 10.7015 20.8303 10.8015 20.9641C10.9015 21.0978 11.0177 21.1641 11.1515 21.1641H21.5515C21.6852 21.1641 21.8177 21.0978 21.9515 20.9641C22.0852 20.8303 22.1515 20.6978 22.1515 20.5641V13.6641H20.7515C20.9515 14.3303 21.0177 15.0303 20.9515 15.7641ZM16.3515 18.2641C17.1515 18.2641 17.8515 17.9641 18.4515 17.3641C19.0515 16.7641 19.3515 16.0478 19.3515 15.2141C19.3586 14.3993 19.0546 13.6124 18.5015 13.0141C17.9352 12.3803 17.2352 12.0641 16.4015 12.0641C15.5677 12.0641 14.8515 12.3641 14.2515 12.9641C13.6515 13.5641 13.3515 14.2803 13.3515 15.1141C13.3515 15.9478 13.6352 16.6803 14.2015 17.3141C14.7677 17.9478 15.4515 18.2641 16.2515 18.2641H16.3515ZM21.5515 8.76406H20.1515C20.0177 8.76406 19.8852 8.83031 19.7515 8.96406C19.6177 9.09781 19.5515 9.23031 19.5515 9.36406V11.0641C19.6852 11.3303 19.8852 11.4641 20.1515 11.4641H21.5515C21.7515 11.4641 21.9015 11.3978 22.0015 11.2641C22.0941 11.1509 22.1468 11.0103 22.1515 10.8641V9.36406C22.1515 9.23031 22.0852 9.09781 21.9515 8.96406C21.8177 8.83031 21.6852 8.76406 21.5515 8.76406ZM15.9515 0.164062C13.2177 0.164062 10.7015 0.830312 8.40148 2.16406C6.13363 3.46526 4.25267 5.34622 2.95148 7.61406C1.61773 9.91406 0.951477 12.4303 0.951477 15.1641C0.951477 17.8978 1.61773 20.4141 2.95148 22.7141C4.25267 24.9819 6.13363 26.8629 8.40148 28.1641C10.7015 29.4978 13.2177 30.1641 15.9515 30.1641C18.6852 30.1641 21.2015 29.4978 23.5015 28.1641C25.7693 26.8629 27.6503 24.9819 28.9515 22.7141C30.2852 20.4141 30.9515 17.8978 30.9515 15.1641C30.9515 12.4303 30.2852 9.91406 28.9515 7.61406C27.6503 5.34622 25.7693 3.46526 23.5015 2.16406C21.2015 0.830312 18.6852 0.164062 15.9515 0.164062ZM23.7515 21.2641L23.6515 21.3641V21.4641C23.6543 21.6221 23.6247 21.7791 23.5645 21.9253C23.5043 22.0715 23.4148 22.2038 23.3015 22.3141C23.07 22.5464 22.7737 22.7033 22.4515 22.7641H10.3515C10.1889 22.7651 10.0282 22.7297 9.88112 22.6605C9.73403 22.5912 9.60431 22.49 9.50148 22.3641C9.27413 22.1094 9.1188 21.7987 9.05148 21.4641L8.95148 21.2641L9.05148 8.96406C9.05148 8.63031 9.16773 8.33031 9.40148 8.06406C9.63523 7.79781 9.91773 7.63031 10.2515 7.56406H22.3515C22.6737 7.62486 22.97 7.78173 23.2015 8.01406C23.4338 8.2455 23.5907 8.54181 23.6515 8.86406L23.7515 21.2641Z" fill="#7E7E7E"/>
</svg>
