<svg width="15" height="17" viewBox="0 0 15 17" fill="none" xmlns="http://www.w3.org/2000/svg">
<g clip-path="url(#clip0_1_1573)">
<path d="M7.95184 0.439209C8.78857 0.439209 9.62527 0.439209 10.4572 0.439209C10.4838 1.43906 10.8834 2.3928 11.5777 3.11288C12.3277 3.79814 13.2862 4.21138 14.2994 4.28622V6.86852C13.3665 6.83296 12.4504 6.60886 11.6065 6.20973C11.2462 6.03662 10.899 5.83732 10.5678 5.61344C10.5678 7.48404 10.5678 9.35466 10.5678 11.2205C10.52 12.1277 10.2203 13.0036 9.70226 13.7498C9.27672 14.3714 8.71036 14.8834 8.04934 15.2445C7.38833 15.6054 6.65135 15.8052 5.8985 15.8273C4.98037 15.8666 4.07085 15.6359 3.28253 15.1636C2.63266 14.7792 2.08244 14.2472 1.67642 13.6106C1.27041 12.974 1.02 12.2508 0.945475 11.4993C0.928356 11.179 0.928356 10.858 0.945475 10.5376C1.00888 9.88037 1.20698 9.24313 1.52742 8.66579C1.84786 8.08841 2.28378 7.58324 2.80801 7.18171C3.33224 6.78019 3.93355 6.49094 4.57446 6.33199C5.21538 6.17304 5.88216 6.14779 6.53325 6.25781C6.53325 7.21957 6.53325 8.18132 6.53325 9.10939C6.25925 9.01305 5.96889 8.97184 5.67889 8.98816C5.3889 9.00449 5.10499 9.07804 4.84352 9.2045C4.58205 9.33095 4.34819 9.50793 4.15539 9.72514C3.96259 9.94244 3.81467 10.1956 3.72013 10.4703C3.6156 10.8027 3.57801 11.1524 3.60952 11.4993C3.69184 12.0288 3.96637 12.5094 4.38066 12.8491C4.79494 13.1889 5.31991 13.3641 5.85522 13.3411C6.21027 13.3265 6.55624 13.2246 6.86241 13.0442C7.16859 12.8639 7.42553 12.6107 7.61042 12.3072C7.75186 12.1058 7.8426 11.8732 7.8749 11.6292C7.93741 10.4799 7.91337 9.34018 7.91817 8.19093C7.91817 5.60862 7.91817 3.03113 7.91817 0.453635L7.95184 0.439209Z" fill="white"/>
</g>
<defs>
<clipPath id="clip0_1_1573">
<rect width="14.2083" height="15.9844" fill="white" transform="translate(0.340658 0.143311)"/>
</clipPath>
</defs>
</svg>
