<svg width="31" height="31" viewBox="0 0 31 31" fill="none" xmlns="http://www.w3.org/2000/svg">
<path d="M15.9515 0.164062C13.2177 0.164062 10.7015 0.830312 8.40148 2.16406C6.13363 3.46526 4.25267 5.34622 2.95148 7.61406C1.61773 9.91406 0.951477 12.4303 0.951477 15.1641C0.951477 17.8978 1.61773 20.4141 2.95148 22.7141C4.25267 24.9819 6.13363 26.8629 8.40148 28.1641C10.7015 29.4978 13.2177 30.1641 15.9515 30.1641C18.6852 30.1641 21.2015 29.4978 23.5015 28.1641C25.7693 26.8629 27.6503 24.9819 28.9515 22.7141C30.2852 20.4141 30.9515 17.8978 30.9515 15.1641C30.9515 12.4303 30.2852 9.91406 28.9515 7.61406C27.6503 5.34622 25.7693 3.46526 23.5015 2.16406C21.2015 0.830312 18.6852 0.164062 15.9515 0.164062ZM23.4515 11.7641V12.2641C23.4515 13.9978 23.0352 15.6641 22.2015 17.2641C21.3792 18.8519 20.1552 20.1966 18.6515 21.1641C16.9852 22.2303 15.1177 22.7641 13.0515 22.7641C11.0386 22.7791 9.06249 22.2244 7.35148 21.1641H8.25148C9.98523 21.1641 11.5177 20.6303 12.8515 19.5641C12.0515 19.5641 11.3352 19.3141 10.7015 18.8141C10.0677 18.3141 9.61773 17.6641 9.35148 16.8641L10.0515 17.0641C10.5177 17.0641 10.8515 16.9978 11.0515 16.8641C10.2005 16.7399 9.43034 16.2922 8.90148 15.6141C8.3498 14.9555 8.04872 14.1231 8.05148 13.2641C8.58523 13.5978 9.15148 13.7641 9.75148 13.7641C8.61773 13.0978 8.05148 12.0641 8.05148 10.6641C8.05148 9.99781 8.21773 9.36406 8.55148 8.76406C9.55148 9.96406 10.7015 10.8978 12.0015 11.5641C13.3211 12.2359 14.7716 12.6113 16.2515 12.6641C16.1177 12.4641 16.0515 12.1641 16.0515 11.7641C16.0515 10.7641 16.4177 9.89781 17.1515 9.16406C17.8852 8.43031 18.7515 8.06406 19.7515 8.06406C20.7515 8.06406 21.6852 8.43031 22.5515 9.16406C23.1515 9.03031 23.9515 8.73031 24.9515 8.26406C24.6852 9.19781 24.1515 9.86406 23.3515 10.2641H23.4515C24.3852 10.0641 25.0515 9.86406 25.4515 9.66406C24.7852 10.5303 24.1177 11.2303 23.4515 11.7641Z" fill="#7E7E7E"/>
</svg>
