<svg width="31" height="31" viewBox="0 0 31 31" fill="none" xmlns="http://www.w3.org/2000/svg">
<path d="M15.0515 22.1641C14.9959 22.2843 14.9097 22.3877 14.8015 22.4641C14.7138 22.5267 14.6092 22.5616 14.5015 22.5641C14.4015 22.5641 14.3352 22.5303 14.3015 22.4641C14.2629 22.369 14.2458 22.2665 14.2515 22.1641V18.4641H13.3515V22.5641C13.3417 22.7903 13.3935 23.015 13.5015 23.2141C13.6015 23.3803 13.7515 23.4641 13.9515 23.4641C14.1515 23.4641 14.3352 23.3978 14.5015 23.2641C14.6677 23.1303 14.8515 22.9641 15.0515 22.7641V23.3641H15.9515V18.4641H15.0515V22.1641ZM9.65148 17.6641V16.6641H12.9515V17.6641H11.8515V23.3641H10.7515V17.6641H9.65148ZM15.8515 11.7641C15.7177 11.7641 15.6015 11.7141 15.5015 11.6141C15.4539 11.569 15.4161 11.5148 15.3903 11.4546C15.3645 11.3944 15.3513 11.3295 15.3515 11.2641V8.26406C15.3515 8.19781 15.3852 8.13031 15.4515 8.06406C15.5177 7.99781 15.6352 7.96406 15.8015 7.96406C15.9677 7.96406 16.1015 7.99781 16.2015 8.06406C16.2505 8.09666 16.2901 8.14149 16.3164 8.19411C16.3427 8.24673 16.3548 8.30532 16.3515 8.36406V11.2641C16.3515 11.3978 16.3015 11.5141 16.2015 11.6141C16.1565 11.6616 16.1022 11.6995 16.042 11.7253C15.9818 11.7511 15.917 11.7643 15.8515 11.7641ZM18.3515 22.1641C18.3515 21.3641 18.3852 20.5303 18.4515 19.6641C18.4515 19.5303 18.4015 19.4141 18.3015 19.3141C18.2015 19.2141 18.1015 19.1641 18.0015 19.1641H17.8515L17.5515 19.3641V22.3641L17.8515 22.5641L18.0515 22.6641C18.1852 22.6641 18.2677 22.6303 18.3015 22.5641C18.3352 22.4978 18.3515 22.3641 18.3515 22.1641ZM18.4515 18.3641C18.7177 18.3641 18.9352 18.4641 19.1015 18.6641C19.2677 18.8641 19.3515 19.1641 19.3515 19.5641V22.3641C19.3515 22.6978 19.2852 22.9641 19.1515 23.1641C19.0964 23.257 19.0142 23.3309 18.9158 23.3756C18.8174 23.4203 18.7077 23.4337 18.6015 23.4141C18.3963 23.3879 18.1949 23.3375 18.0015 23.2641C17.8512 23.2116 17.7263 23.1045 17.6515 22.9641V23.3641H16.6515V16.6641H17.6515V18.8641C17.7852 18.7303 17.9177 18.6141 18.0515 18.5141C18.1647 18.4214 18.3053 18.3687 18.4515 18.3641ZM23.3515 24.7641C23.6852 24.4978 23.8852 23.6303 23.9515 22.1641C24.0177 21.4303 24.0852 20.7303 24.1515 20.0641C24.1515 19.4641 24.0852 18.7978 23.9515 18.0641C23.8177 16.5978 23.6015 15.6978 23.3015 15.3641C23.0015 15.0303 21.7177 14.7978 19.4515 14.6641L16.1515 14.5641L12.7515 14.6641C10.4852 14.7978 9.20148 15.0303 8.90148 15.3641C8.60148 15.6978 8.38523 16.5978 8.25148 18.0641C8.18491 18.7287 8.15154 19.3961 8.15148 20.0641C8.15148 20.7303 8.18523 21.4303 8.25148 22.1641C8.38523 23.6303 8.60148 24.5141 8.90148 24.8141C9.20148 25.1141 10.4852 25.3641 12.7515 25.5641L16.1515 25.6641L19.4515 25.5641C21.7177 25.3641 23.0177 25.1303 23.3515 24.8641V24.7641ZM11.4515 5.16406H10.2515L11.6515 9.66406V12.4641H12.8515V9.46406L14.2515 5.16406H13.0515L12.3515 8.06406H12.2515L11.4515 5.16406ZM14.3515 8.36406V11.1641C14.3515 11.6303 14.4852 11.9978 14.7515 12.2641C15.0177 12.5303 15.3852 12.6641 15.8515 12.6641C16.3177 12.6641 16.6852 12.5303 16.9515 12.2641C17.2177 11.9978 17.3515 11.6303 17.3515 11.1641V8.36406C17.3515 7.96406 17.2177 7.63031 16.9515 7.36406C16.6852 7.09781 16.3177 6.96406 15.8515 6.96406C15.3852 6.96406 15.0177 7.09781 14.7515 7.36406C14.4852 7.63031 14.3515 7.96406 14.3515 8.36406ZM18.2515 7.16406V11.6641C18.2417 11.8903 18.2935 12.115 18.4015 12.3141C18.5015 12.4803 18.6677 12.5641 18.9015 12.5641C19.1352 12.5641 19.3515 12.5141 19.5515 12.4141C19.7515 12.3141 19.9515 12.1641 20.1515 11.9641V12.5641H21.2515V7.16406H20.1515V11.1641C20.0876 11.2946 19.982 11.4002 19.8515 11.4641C19.744 11.5236 19.6242 11.5578 19.5015 11.5641C19.4015 11.5641 19.3352 11.5478 19.3015 11.5141C19.2677 11.4803 19.2515 11.3978 19.2515 11.2641V7.06406H18.2515V7.16406ZM15.9515 0.164062C18.6852 0.164062 21.2015 0.830312 23.5015 2.16406C25.7693 3.46526 27.6503 5.34622 28.9515 7.61406C30.2852 9.91406 30.9515 12.4303 30.9515 15.1641C30.9515 17.8978 30.2852 20.4141 28.9515 22.7141C27.6503 24.9819 25.7693 26.8629 23.5015 28.1641C21.2015 29.4978 18.6852 30.1641 15.9515 30.1641C13.2177 30.1641 10.7015 29.4978 8.40148 28.1641C6.13363 26.8629 4.25267 24.9819 2.95148 22.7141C1.61773 20.4141 0.951477 17.8978 0.951477 15.1641C0.951477 12.4303 1.61773 9.91406 2.95148 7.61406C4.25267 5.34622 6.13363 3.46526 8.40148 2.16406C10.7015 0.830312 13.2177 0.164062 15.9515 0.164062ZM21.6515 20.2641L21.5515 19.7641C21.5515 19.5641 21.5177 19.4141 21.4515 19.3141C21.4189 19.2651 21.3741 19.2255 21.3214 19.1992C21.2688 19.1728 21.2102 19.1607 21.1515 19.1641C21.0927 19.1607 21.0341 19.1728 20.9815 19.1992C20.9289 19.2255 20.8841 19.2651 20.8515 19.3141C20.7852 19.4141 20.7515 19.5641 20.7515 19.7641V20.2641H21.6515ZM21.2515 18.3641C21.6515 18.3641 21.9677 18.4803 22.2015 18.7141C22.4352 18.9478 22.5515 19.2978 22.5515 19.7641V20.9641H20.7515V21.9641C20.7515 22.1641 20.7852 22.3141 20.8515 22.4141C20.9177 22.5141 21.0352 22.5641 21.2015 22.5641C21.3677 22.5641 21.4852 22.5141 21.5515 22.4141C21.6177 22.3141 21.6515 22.1303 21.6515 21.8641V21.6641H22.5515V21.9641C22.5515 22.4303 22.4352 22.7978 22.2015 23.0641C21.9677 23.3303 21.6352 23.4641 21.2015 23.4641C20.7677 23.4641 20.4352 23.3303 20.2015 23.0641C19.9677 22.7978 19.8515 22.4303 19.8515 21.9641V19.7641C19.8515 19.3641 19.9852 19.0303 20.2515 18.7641C20.5177 18.4978 20.8515 18.3641 21.2515 18.3641Z" fill="#7E7E7E"/>
</svg>
